<?xml version="1.0" encoding="UTF-8" standalone="no" ?>
<!DOCTYPE svg PUBLIC "-//W3C//DTD SVG 1.1//EN" "http://www.w3.org/Graphics/SVG/1.1/DTD/svg11.dtd">
<svg xmlns="http://www.w3.org/2000/svg" xmlns:xlink="http://www.w3.org/1999/xlink" version="1.1" width="365" height="100" viewBox="0 0 365 100" xml:space="preserve">
<desc>Created with Fabric.js 4.2.0</desc>
<defs>
</defs>
<rect x="0" y="0" width="100%" height="100%" fill="transparent"></rect>
<g transform="matrix(1 0 0 1 182.5 50)" id="e95d70e3-b6a1-4bd4-80df-d8b4c5745a20"  >
<rect style="stroke: none; stroke-width: 1; stroke-dasharray: none; stroke-linecap: butt; stroke-dashoffset: 0; stroke-linejoin: miter; stroke-miterlimit: 4; fill: rgb(255,255,255); fill-rule: nonzero; opacity: 1; visibility: hidden;" vector-effect="non-scaling-stroke"  x="-182.5" y="-50" rx="0" ry="0" width="365" height="100" />
</g>
<g transform="matrix(Infinity NaN NaN Infinity 0 0)" id="daf36ee5-02e8-42c4-a4ad-5e024bc62645"  >
</g>
<g transform="matrix(0.94 0 0 0.95 181.83 49.81)"  >
<g style="" vector-effect="non-scaling-stroke"   >
		<g transform="matrix(1.1 0 0 1.1 133.5 0)"  >
<path style="stroke: none; stroke-width: 1; stroke-dasharray: none; stroke-linecap: butt; stroke-dashoffset: 0; stroke-linejoin: miter; stroke-miterlimit: 4; fill: rgb(255,95,95); fill-rule: nonzero; opacity: 1;" vector-effect="non-scaling-stroke"  transform=" translate(-50, -50)" d="M 5 20.1 L 12.4 12.700000000000001 L 38.5 38.800000000000004 L 46 46.2 L 38.5 53.6 L 12.4 79.7 L 5 72.3 L 31.1 46.199999999999996 L 5 20.1 z M 95 87.3 L 95 75.7 L 48.8 75.7 L 48.8 87.3 L 95 87.3 z" stroke-linecap="round" />
</g>
		<g transform="matrix(4.45 0 0 4.45 -57.31 0.21)"  >
<path style="stroke: none; stroke-width: 1; stroke-dasharray: none; stroke-linecap: butt; stroke-dashoffset: 0; stroke-linejoin: miter; stroke-miterlimit: 4; fill: rgb(255,95,95); fill-rule: nonzero; opacity: 1;" vector-effect="non-scaling-stroke"  transform=" translate(-28.22, -12.56)" d="M 3.86 7.859999999999999 L 3.859980469 10.52 L 6.439980469 10.52 L 6.439980469 12.08 L 3.859980469 12.08 L 3.859980469 16.64 C 3.859980469 17.25334 3.946640469 17.7267 4.119980469 18.060000000000002 C 4.293320468999999 18.393300000000004 4.659980469 18.560000000000002 5.219980468999999 18.560000000000002 C 5.753320468999999 18.560000000000002 6.179980468999999 18.46666 6.499980469 18.28 L 6.499980469 19.92 C 6.153320469 20.10666 5.6066604689999995 20.213320000000003 4.859980469 20.239980000000003 C 4.139980469 20.239980000000003 3.583280469 20.129980000000003 3.189980469 19.909980000000004 C 2.796680469 19.689980000000006 2.509980469 19.383320000000005 2.329980469 18.989980000000003 C 2.1499804690000004 18.59664 2.059980469 17.97998 2.059980469 17.13998 L 2.059980469 12.079980000000003 L -0.02001953099999998 12.079980000000003 L -0.02001953099999998 10.519980000000002 L 2.059980469 10.519980000000002 L 2.059980469 7.859980000000002 L 3.859980469 7.859980000000002 z M 9.82 5.800000000000001 C 10.18 5.800000000000001 10.49002 5.930020000000001 10.750020000000001 6.1900200000000005 C 11.010020000000003 6.45002 11.140020000000002 6.760020000000001 11.140020000000002 7.12002 C 11.140020000000002 7.49336 11.006680000000001 7.8067 10.740020000000001 8.06004 C 10.473360000000001 8.313380000000002 10.1667 8.440040000000002 9.82004 8.440040000000002 C 9.4467 8.440040000000002 9.13336 8.313380000000002 8.88002 8.06004 C 8.62668 7.806699999999999 8.50002 7.493360000000001 8.50002 7.120020000000001 C 8.50002 6.746680000000001 8.63336 6.433340000000001 8.90002 6.1800000000000015 C 9.16668 5.926660000000002 9.47334 5.800000000000002 9.82 5.800000000000002 z M 10.719999999999999 10.52 L 10.719999999999999 20 L 8.919999999999998 20 L 8.919999999999998 10.52 L 10.719999999999999 10.52 z M 18.54 10.28 C 19.6067 10.28 20.4433 10.6 21.049999999999997 11.239999999999998 C 21.656699999999994 11.879999999999997 21.966659999999997 12.739999999999998 21.979999999999997 13.819999999999999 L 21.979999999999997 20 L 20.179999999999996 20 L 20.179999999999996 14.34 C 20.179999999999996 13.60666 19.989999999999995 13.0267 19.609999999999996 12.6 C 19.229999999999997 12.1733 18.699999999999996 11.959999999999999 18.019999999999996 11.959999999999999 C 17.179999999999996 11.959999999999999 16.529999999999998 12.239999999999998 16.069999999999997 12.799999999999999 C 15.609999999999996 13.36 15.379999999999997 14.106699999999998 15.379999999999997 15.04 L 15.379999999999997 20 L 13.579999999999997 20 L 13.579999999999997 10.52 L 15.379999999999997 10.52 L 15.379999999999997 11.98 L 15.419999999999996 11.98 C 15.673339999999996 11.44666 16.083339999999996 11.030000000000001 16.649999999999995 10.73 C 17.216659999999994 10.43 17.846699999999995 10.280000000000001 18.539999999999996 10.280000000000001 z M 34.2 4.880000000000001 L 34.199980469 20 L 32.399980469000006 20 L 32.399980469000006 18.64 L 32.35998046900001 18.64 C 32.01332046900001 19.14666 31.543320469000008 19.54 30.949980469000007 19.82 C 30.356640469000006 20.1 29.72668046900001 20.240000000000002 29.059980469000006 20.240000000000002 C 27.633280469000006 20.226660000000003 26.476580469000005 19.753320000000002 25.589980469000007 18.82 C 24.70338046900001 17.88668 24.253280469000007 16.7 24.239980469000006 15.26 C 24.239980469000006 13.8067 24.683320469000005 12.62 25.569980469000008 11.7 C 26.45664046900001 10.78 27.61998046900001 10.3067 29.05998046900001 10.28 C 29.71332046900001 10.28 30.33998046900001 10.42 30.93998046900001 10.7 C 31.539980469000007 10.979999999999999 32.01328046900001 11.373339999999999 32.35998046900001 11.879999999999999 L 32.399980469000006 11.879999999999999 L 32.399980469000006 4.879999999999999 L 34.199980469 4.879999999999999 z M 26.16 15.26 C 26.16 16.23334 26.44666 17.0233 27.02 17.63 C 27.593339999999998 18.2367 28.3467 18.54666 29.28 18.56 C 30.226660000000003 18.56 30.9833 18.25666 31.55 17.65 C 32.1167 17.043339999999997 32.4 16.246699999999997 32.4 15.259999999999998 C 32.4 14.286659999999998 32.12 13.496699999999997 31.56 12.889999999999997 C 31 12.283299999999997 30.2333 11.973339999999997 29.259999999999998 11.959999999999997 C 28.326659999999997 11.959999999999997 27.5767 12.266659999999998 27.009999999999998 12.879999999999997 C 26.443299999999997 13.493339999999996 26.159999999999997 14.286699999999998 26.159999999999997 15.259999999999998 z M 41.260000000000005 10.28 C 42.713300000000004 10.28 43.8434 10.73664 44.650000000000006 11.649999999999999 C 45.45660000000001 12.563359999999998 45.86670000000001 13.819999999999999 45.88 15.419999999999998 L 45.88 15.919999999999998 L 38.28 15.919999999999998 C 38.28 16.69334 38.59 17.3433 39.21 17.869999999999997 C 39.83 18.396699999999996 40.5867 18.666659999999997 41.480000000000004 18.679999999999996 C 42.466660000000005 18.679999999999996 43.3333 18.206659999999996 44.080000000000005 17.259999999999998 L 45.440000000000005 18.299999999999997 C 44.426700000000004 19.593299999999996 43.0266 20.24 41.24 20.24 C 39.7867 20.24 38.616600000000005 19.77666 37.730000000000004 18.849999999999998 C 36.8434 17.923339999999996 36.386700000000005 16.726599999999998 36.36000000000001 15.259999999999998 C 36.36000000000001 13.846699999999998 36.816660000000006 12.669999999999998 37.730000000000004 11.729999999999999 C 38.64334 10.79 39.82000000000001 10.3067 41.260000000000005 10.28 z M 43.96 14.48 C 43.93334 13.58666 43.68 12.9033 43.2 12.43 C 42.720000000000006 11.9567 42.06 11.719999999999999 41.220000000000006 11.719999999999999 C 40.660000000000004 11.719999999999999 40.15670000000001 11.856659999999998 39.71000000000001 12.129999999999999 C 39.26330000000001 12.40334 38.913340000000005 12.75668 38.66000000000001 13.19 C 38.40666000000002 13.62332 38.28000000000001 14.053339999999999 38.28000000000001 14.48 L 43.96000000000001 14.48 z M 48.980000000000004 10.52 L 51.82000000000001 17.78 L 54.540000000000006 10.520000000000001 L 56.46000000000001 10.520000000000001 L 52.74000000000001 20 L 50.76000000000001 20 L 46.90000000000001 10.52 L 48.98000000000001 10.52 z" stroke-linecap="round" />
</g>
</g>
</g>
</svg>